C:\Users\r0593348\3dpredictsim\Results\Batchsim_tmt_linear_v2\Pog_s1_tmt_aCst_d00_k250_ig24_pas_GRF.mot
nRows=17
nColumns=19

name C:\Users\r0593348\3dpredictsim\Results\Batchsim_tmt_linear_v2\Pog_s1_tmt_aCst_d00_k250_ig24_pas_GRF.mot
datacolumns 19
datarows 17
range 0.0000000000 0.1746720623
endheader
time 	ground_force_vx	ground_force_vy	ground_force_vz	ground_force_px	ground_force_py	ground_force_pz	1_ground_force_vx	1_ground_force_vy	1_ground_force_vz	1_ground_force_px	1_ground_force_py	1_ground_force_pz	ground_torque_x	ground_torque_y	ground_torque_z	1_ground_torque_x	1_ground_torque_y	1_ground_torque_z
        0.0000000000	      -55.6340466816	       48.0711766185	       21.4555955685	        0.1761022679	        0.0000000000	        0.0430644569	      121.0923474318	      504.5108192022	        1.4920428673	       -0.3493157995	        0.0000000000	       -0.0449154461	        0.0000000000	        0.0000000000	        0.0000000000	        0.0000000000	        0.0000000000	        0.0000000000	
        0.0109170039	      -97.8847083428	      116.7365670317	       63.7160815867	        0.1825364707	        0.0000000000	        0.0411221777	       91.2305440894	      407.2738331017	       -4.4901374280	       -0.3372501968	        0.0000000000	       -0.0433828825	        0.0000000000	        0.0000000000	        0.0000000000	        0.0000000000	        0.0000000000	        0.0000000000	
        0.0218340078	      -56.6569259071	      247.3734460809	       32.8980510902	        0.1874401309	        0.0000000000	        0.0387409317	       53.1039376727	      297.1280002342	       -7.0169622025	       -0.3168112819	        0.0000000000	       -0.0403139351	        0.0000000000	        0.0000000000	        0.0000000000	        0.0000000000	        0.0000000000	        0.0000000000	
        0.0327510117	      -59.2919867651	      406.4108313257	        4.6582471458	        0.1910243901	        0.0000000000	        0.0385649186	       20.8435184194	      202.3473986678	       -7.0187104710	       -0.2863182905	        0.0000000000	       -0.0346931815	        0.0000000000	        0.0000000000	        0.0000000000	        0.0000000000	        0.0000000000	        0.0000000000	
        0.0436680156	      -87.4408686474	      628.0676746340	       -6.4659901598	        0.2002026930	        0.0000000000	        0.0411693553	        1.9425093270	      148.8961358883	      -11.0988682419	       -0.2614621183	        0.0000000000	       -0.0279420456	        0.0000000000	        0.0000000000	        0.0000000000	        0.0000000000	        0.0000000000	        0.0000000000	
        0.0545850195	     -122.6975852330	      822.6483305383	      -12.8415027787	        0.2084120134	        0.0000000000	        0.0436696485	       -2.3799009270	      123.0123781117	      -12.9951722286	       -0.2620143783	        0.0000000000	       -0.0284201333	        0.0000000000	        0.0000000000	        0.0000000000	        0.0000000000	        0.0000000000	        0.0000000000	
        0.0655020234	     -134.3066229041	      903.6962261692	      -16.2719930360	        0.2141686242	        0.0000000000	        0.0452668849	       -2.9434008485	       86.9039985977	      -13.4026459509	       -0.2613091796	        0.0000000000	       -0.0285796504	        0.0000000000	        0.0000000000	        0.0000000000	        0.0000000000	        0.0000000000	        0.0000000000	
        0.0764190273	     -129.2622123621	      899.1478260611	      -15.2310112280	        0.2182878990	        0.0000000000	        0.0463052720	       -5.2946042457	       46.9230032440	      -11.1936049115	       -0.2607945620	        0.0000000000	       -0.0287543477	        0.0000000000	        0.0000000000	        0.0000000000	        0.0000000000	        0.0000000000	        0.0000000000	
        0.0873360312	     -118.1308175399	      858.9018140291	      -14.9843722611	        0.2219964254	        0.0000000000	        0.0470908134	       -5.4689190703	        9.1280303374	       -2.7768599116	        0.0000000000	        0.0000000000	        0.0000000000	        0.0000000000	        0.0000000000	        0.0000000000	        0.0000000000	        0.0000000000	        0.0000000000	
        0.0982530351	     -104.6216510626	      821.0143570248	      -15.0139120655	        0.2258522764	        0.0000000000	        0.0477479828	        0.0006030792	       -0.0005430565	        0.0000174805	        0.0000000000	        0.0000000000	        0.0000000000	        0.0000000000	        0.0000000000	        0.0000000000	        0.0000000000	        0.0000000000	        0.0000000000	
        0.1091700390	      -94.6141292902	      792.5186177662	      -16.1785909997	        0.2308866710	        0.0000000000	        0.0484930372	        0.0000207440	       -0.0000158351	       -0.0000004689	        0.0000000000	        0.0000000000	        0.0000000000	        0.0000000000	        0.0000000000	        0.0000000000	        0.0000000000	        0.0000000000	        0.0000000000	
        0.1200870429	      -86.8231991271	      765.5247665392	      -16.2251946353	        0.2367429667	        0.0000000000	        0.0488161070	        0.0000373133	       -0.0000250346	       -0.0000014535	        0.0000000000	        0.0000000000	        0.0000000000	        0.0000000000	        0.0000000000	        0.0000000000	        0.0000000000	        0.0000000000	        0.0000000000	
        0.1310040468	      -77.9183487612	      732.4737627762	      -16.2082892855	        0.2425561439	        0.0000000000	        0.0489983094	        0.0011917309	       -0.0007220536	       -0.0000564620	        0.0000000000	        0.0000000000	        0.0000000000	        0.0000000000	        0.0000000000	        0.0000000000	        0.0000000000	        0.0000000000	        0.0000000000	
        0.1419210507	      -69.5376095788	      698.4130979432	      -16.0728334386	        0.2481396050	        0.0000000000	        0.0490671191	       -0.0206098056	        0.0114908189	        0.0010665507	        0.0000000000	        0.0000000000	        0.0000000000	        0.0000000000	        0.0000000000	        0.0000000000	        0.0000000000	        0.0000000000	        0.0000000000	
        0.1528380546	      -61.6681361488	      669.5877065545	      -15.8635311867	        0.2536200518	        0.0000000000	        0.0490656357	       -0.0279442576	        0.0145257434	        0.0015216096	        0.0000000000	        0.0000000000	        0.0000000000	        0.0000000000	        0.0000000000	        0.0000000000	        0.0000000000	        0.0000000000	        0.0000000000	
        0.1637550585	      -54.5045200195	      646.9202469754	      -16.1271563262	        0.2589063386	        0.0000000000	        0.0490369201	       -0.0198598360	        0.0097293818	        0.0011171967	        0.0000000000	        0.0000000000	        0.0000000000	        0.0000000000	        0.0000000000	        0.0000000000	        0.0000000000	        0.0000000000	        0.0000000000	
        0.1746720623	      -47.8251934311	      629.0055232261	      -16.3888423045	        0.2639081609	        0.0000000000	        0.0489898554	       -0.0170997200	        0.0079628104	        0.0009772121	        0.0000000000	        0.0000000000	        0.0000000000	        0.0000000000	        0.0000000000	        0.0000000000	        0.0000000000	        0.0000000000	        0.0000000000	
